<?xml version="1.0" standalone="no"?>
<!-- Generator: Adobe Fireworks 10, Export SVG Extension by Aaron Beall (http://fireworks.abeall.com) . Version: 0.6.1  -->
<!DOCTYPE svg PUBLIC "-//W3C//DTD SVG 1.1//EN" "http://www.w3.org/Graphics/SVG/1.1/DTD/svg11.dtd">
<svg id="weather_icon.fw-1" viewBox="0 0 35 35" style="background-color:#ffffff00" version="1.1"
	xmlns="http://www.w3.org/2000/svg" xmlns:xlink="http://www.w3.org/1999/xlink" xml:space="preserve"
	x="0px" y="0px" width="35px" height="35px"
>
	<g id="%u30EC%u30A4%u30E4%u30FC%201">
		<path d="M 5 17.5 C 5 10.5964 10.5964 5 17.5 5 C 24.4036 5 30 10.5964 30 17.5 C 30 24.4036 24.4036 30 17.5 30 C 10.5964 30 5 24.4036 5 17.5 ZM 17.5 -0.3856 C 17.5 -0.3856 14.6444 3.1654 13.3984 3.5312 C 12.1524 3.8971 7.8303 2.4537 7.8303 2.4537 C 7.8303 2.4537 7.3478 6.9848 6.4974 7.9662 C 5.647 8.9476 1.2307 10.0701 1.2307 10.0701 C 1.2307 10.0701 3.2745 14.1427 3.0897 15.4281 C 2.9049 16.7135 -0.2035 20.0454 -0.2035 20.0454 C -0.2035 20.0454 3.7177 22.3666 4.2571 23.5478 C 4.7966 24.7291 3.983 29.2126 3.983 29.2126 C 3.983 29.2126 8.5366 29.0453 9.6291 29.7474 C 10.7215 30.4495 12.4611 34.6611 12.4611 34.6611 C 12.4611 34.6611 16.2014 32.0585 17.5 32.0585 C 18.7986 32.0585 22.5389 34.6611 22.5389 34.6611 C 22.5389 34.6611 24.2785 30.4495 25.3709 29.7474 C 26.4634 29.0453 31.017 29.2126 31.017 29.2126 C 31.017 29.2126 30.2034 24.7291 30.7429 23.5478 C 31.2823 22.3666 35.2035 20.0454 35.2035 20.0454 C 35.2035 20.0454 32.0951 16.7135 31.9103 15.4281 C 31.7255 14.1427 33.7693 10.0701 33.7693 10.0701 C 33.7693 10.0701 29.353 8.9476 28.5026 7.9662 C 27.6522 6.9848 27.1697 2.4537 27.1697 2.4537 C 27.1697 2.4537 22.8476 3.8971 21.6016 3.5312 C 20.3556 3.1654 17.5 -0.3856 17.5 -0.3856 Z" fill="#000000"/>
		<path id="%u6955%u5186%u5F62" d="M 7 17.5 C 7 11.7009 11.7009 7 17.5 7 C 23.2991 7 28 11.7009 28 17.5 C 28 23.2991 23.2991 28 17.5 28 C 11.7009 28 7 23.2991 7 17.5 Z" fill="#000000"/>
	</g>
</svg>