<?xml version="1.0" standalone="no"?>
<!-- Generator: Adobe Fireworks 10, Export SVG Extension by Aaron Beall (http://fireworks.abeall.com) . Version: 0.6.1  -->
<!DOCTYPE svg PUBLIC "-//W3C//DTD SVG 1.1//EN" "http://www.w3.org/Graphics/SVG/1.1/DTD/svg11.dtd">
<svg id="weather_icon.fw-3" viewBox="0 0 35 35" style="background-color:#ffffff00" version="1.1"
	xmlns="http://www.w3.org/2000/svg" xmlns:xlink="http://www.w3.org/1999/xlink" xml:space="preserve"
	x="0px" y="0px" width="35px" height="35px"
>
	<g id="%u30EC%u30A4%u30E4%u30FC%2013">
		<g>
			<path d="M 2.9393 10.2067 C 2.9393 6.267 6.1004 3.0734 10 3.0734 C 13.8996 3.0734 17.0607 6.267 17.0607 10.2067 C 17.0607 14.1464 13.8996 17.3401 10 17.3401 C 6.1004 17.3401 2.9393 14.1464 2.9393 10.2067 ZM 10 0 C 10 0 8.387 2.0264 7.6832 2.2352 C 6.9794 2.444 4.538 1.6203 4.538 1.6203 C 4.538 1.6203 4.2655 4.206 3.7851 4.7661 C 3.3047 5.3262 0.8101 5.9667 0.8101 5.9667 C 0.8101 5.9667 1.9646 8.2908 1.8602 9.0244 C 1.7558 9.7579 0 11.6593 0 11.6593 C 0 11.6593 2.2149 12.9839 2.5196 13.658 C 2.8244 14.3321 2.3648 16.8907 2.3648 16.8907 C 2.3648 16.8907 4.937 16.7953 5.554 17.1959 C 6.1711 17.5966 7.1537 20 7.1537 20 C 7.1537 20 9.2665 18.5148 10 18.5148 C 10.7335 18.5148 12.8463 20 12.8463 20 C 12.8463 20 13.8289 17.5966 14.446 17.1959 C 15.063 16.7953 17.6352 16.8907 17.6352 16.8907 C 17.6352 16.8907 17.1756 14.3321 17.4804 13.658 C 17.7851 12.9839 20 11.6593 20 11.6593 C 20 11.6593 18.2442 9.7579 18.1398 9.0244 C 18.0354 8.2908 19.1899 5.9667 19.1899 5.9667 C 19.1899 5.9667 16.6953 5.3262 16.2149 4.7661 C 15.7346 4.206 15.462 1.6203 15.462 1.6203 C 15.462 1.6203 13.0206 2.444 12.3168 2.2352 C 11.613 2.0264 10 0 10 0 Z" fill="#000000"/>
			<path id="%u6955%u5186%u5F623" d="M 4.069 10.2067 C 4.069 6.8974 6.7243 4.2147 10 4.2147 C 13.2757 4.2147 15.931 6.8974 15.931 10.2067 C 15.931 13.5161 13.2757 16.1987 10 16.1987 C 6.7243 16.1987 4.069 13.5161 4.069 10.2067 Z" fill="#000000"/>
		</g>
		<path d="M 2 26 L 32 9 L 33 10 L 2 27 L 2 26 Z" fill="#000000"/>
		<path d="M 25.4194 16.2547 L 25.4194 17.0612 C 30.4862 17.0641 34.5081 21.2528 35 25.9332 C 33.3046 23.7574 30.2632 23.3247 28.3775 25.5512 C 27.7811 24.7806 26.4179 24.1079 25.4194 24.1079 L 25.4194 32.8101 C 25.4194 35.6364 20.0331 35.9226 20.0331 32.5129 C 20.0331 32.3041 20.2438 32.115 20.4305 32.046 L 20.7837 32.2158 C 21.0114 33.2473 21.4041 34.2534 22.7263 34.2534 C 23.4433 34.2534 24.5806 33.4573 24.5806 32.7252 L 24.5806 24.1928 C 23.9462 23.847 21.9166 25.3759 21.6667 25.9757 C 19.8435 23.8708 16.6917 23.81 15 26.103 C 15.383 20.944 19.3093 17.4464 24.5806 17.0612 L 24.5806 16.2547 L 24.9779 16 L 25.4194 16.2547 Z" fill="#000000"/>
	</g>
</svg>