<?xml version="1.0" standalone="no"?>
<!-- Generator: Adobe Fireworks 10, Export SVG Extension by Aaron Beall (http://fireworks.abeall.com) . Version: 0.6.1  -->
<!DOCTYPE svg PUBLIC "-//W3C//DTD SVG 1.1//EN" "http://www.w3.org/Graphics/SVG/1.1/DTD/svg11.dtd">
<svg id="weather_icon.fw-5" viewBox="0 0 35 35" style="background-color:#ffffff00" version="1.1"
	xmlns="http://www.w3.org/2000/svg" xmlns:xlink="http://www.w3.org/1999/xlink" xml:space="preserve"
	x="0px" y="0px" width="35px" height="35px"
>
	<g id="%u30EC%u30A4%u30E4%u30FC%2015">
		<g>
			<path d="M 2.9393 10.2067 C 2.9393 6.267 6.1004 3.0734 10 3.0734 C 13.8996 3.0734 17.0607 6.267 17.0607 10.2067 C 17.0607 14.1464 13.8996 17.3401 10 17.3401 C 6.1004 17.3401 2.9393 14.1464 2.9393 10.2067 ZM 10 0 C 10 0 8.387 2.0264 7.6832 2.2352 C 6.9794 2.444 4.538 1.6203 4.538 1.6203 C 4.538 1.6203 4.2655 4.206 3.7851 4.7661 C 3.3047 5.3262 0.8101 5.9667 0.8101 5.9667 C 0.8101 5.9667 1.9646 8.2908 1.8602 9.0244 C 1.7558 9.7579 0 11.6593 0 11.6593 C 0 11.6593 2.2149 12.9839 2.5196 13.658 C 2.8244 14.3321 2.3648 16.8907 2.3648 16.8907 C 2.3648 16.8907 4.937 16.7953 5.554 17.1959 C 6.1711 17.5966 7.1537 20 7.1537 20 C 7.1537 20 9.2665 18.5148 10 18.5148 C 10.7335 18.5148 12.8463 20 12.8463 20 C 12.8463 20 13.8289 17.5966 14.446 17.1959 C 15.063 16.7953 17.6352 16.8907 17.6352 16.8907 C 17.6352 16.8907 17.1756 14.3321 17.4804 13.658 C 17.7851 12.9839 20 11.6593 20 11.6593 C 20 11.6593 18.2442 9.7579 18.1398 9.0244 C 18.0354 8.2908 19.1899 5.9667 19.1899 5.9667 C 19.1899 5.9667 16.6953 5.3262 16.2149 4.7661 C 15.7346 4.206 15.462 1.6203 15.462 1.6203 C 15.462 1.6203 13.0206 2.444 12.3168 2.2352 C 11.613 2.0264 10 0 10 0 Z" fill="#000000"/>
			<path id="%u6955%u5186%u5F626" d="M 4.069 10.2067 C 4.069 6.8974 6.7243 4.2147 10 4.2147 C 13.2757 4.2147 15.931 6.8974 15.931 10.2067 C 15.931 13.5161 13.2757 16.1987 10 16.1987 C 6.7243 16.1987 4.069 13.5161 4.069 10.2067 Z" fill="#000000"/>
		</g>
		<path d="M 30.625 24.6 C 30.4175 24.6 30.2124 24.6152 30.0081 24.6457 C 28.8411 22.9919 26.9995 22 25 22 C 23.0005 22 21.1597 22.9919 19.9919 24.6457 C 19.7876 24.6152 19.5825 24.6 19.375 24.6 C 16.9629 24.6 15 26.6414 15 29.15 C 15 31.6586 16.9629 33.7 19.375 33.7 C 19.9097 33.7 20.4329 33.5984 20.9261 33.4021 C 22.0573 34.4279 23.4961 35 25 35 C 26.5055 35 27.9427 34.4279 29.0739 33.4021 C 29.5671 33.5984 30.0903 33.7 30.625 33.7 C 33.0371 33.7 35 31.6586 35 29.15 C 35 26.6414 33.0371 24.6 30.625 24.6 Z" fill="#000000"/>
		<path d="M 0 35 L 14 35 L 7 28 L 7 32 L 0 32 L 0 35 Z" fill="#000000"/>
	</g>
</svg>