<?xml version="1.0" standalone="no"?>
<!-- Generator: Adobe Fireworks 10, Export SVG Extension by Aaron Beall (http://fireworks.abeall.com) . Version: 0.6.1  -->
<!DOCTYPE svg PUBLIC "-//W3C//DTD SVG 1.1//EN" "http://www.w3.org/Graphics/SVG/1.1/DTD/svg11.dtd">
<svg id="weather_icon.fw-7" viewBox="0 0 35 35" style="background-color:#ffffff00" version="1.1"
	xmlns="http://www.w3.org/2000/svg" xmlns:xlink="http://www.w3.org/1999/xlink" xml:space="preserve"
	x="0px" y="0px" width="35px" height="35px"
>
	<g id="%u30EC%u30A4%u30E4%u30FC%2017">
		<g>
			<path d="M 2.9393 10.2067 C 2.9393 6.267 6.1004 3.0734 10 3.0734 C 13.8996 3.0734 17.0607 6.267 17.0607 10.2067 C 17.0607 14.1464 13.8996 17.3401 10 17.3401 C 6.1004 17.3401 2.9393 14.1464 2.9393 10.2067 ZM 10 0 C 10 0 8.387 2.0264 7.6832 2.2352 C 6.9794 2.444 4.538 1.6203 4.538 1.6203 C 4.538 1.6203 4.2655 4.206 3.7851 4.7661 C 3.3047 5.3262 0.8101 5.9667 0.8101 5.9667 C 0.8101 5.9667 1.9646 8.2908 1.8602 9.0244 C 1.7558 9.7579 0 11.6593 0 11.6593 C 0 11.6593 2.2149 12.9839 2.5196 13.658 C 2.8244 14.3321 2.3648 16.8907 2.3648 16.8907 C 2.3648 16.8907 4.937 16.7953 5.554 17.1959 C 6.1711 17.5966 7.1537 20 7.1537 20 C 7.1537 20 9.2665 18.5148 10 18.5148 C 10.7335 18.5148 12.8463 20 12.8463 20 C 12.8463 20 13.8289 17.5966 14.446 17.1959 C 15.063 16.7953 17.6352 16.8907 17.6352 16.8907 C 17.6352 16.8907 17.1756 14.3321 17.4804 13.658 C 17.7851 12.9839 20 11.6593 20 11.6593 C 20 11.6593 18.2442 9.7579 18.1398 9.0244 C 18.0354 8.2908 19.1899 5.9667 19.1899 5.9667 C 19.1899 5.9667 16.6953 5.3262 16.2149 4.7661 C 15.7346 4.206 15.462 1.6203 15.462 1.6203 C 15.462 1.6203 13.0206 2.444 12.3168 2.2352 C 11.613 2.0264 10 0 10 0 Z" fill="#000000"/>
			<path id="%u6955%u5186%u5F628" d="M 4.069 10.2067 C 4.069 6.8974 6.7243 4.2147 10 4.2147 C 13.2757 4.2147 15.931 6.8974 15.931 10.2067 C 15.931 13.5161 13.2757 16.1987 10 16.1987 C 6.7243 16.1987 4.069 13.5161 4.069 10.2067 Z" fill="#000000"/>
		</g>
		<path d="M 29.9737 15.5797 L 29.9737 19.058 L 28.5625 18.0072 C 27.9112 17.6449 26.3191 17.8623 25.9211 17.8986 C 26.5 17.3188 27.0789 16.1594 27.6579 15 C 28.2368 15 29.3947 15.5797 29.9737 15.5797 Z" fill="#000000"/>
		<path id="%u6955%u5186%u5F629" d="M 21 30.0725 C 21 28.2176 22.1439 26.6021 23.8342 25.7614 C 23.9309 25.942 25.6413 26.9928 26.6086 26.9928 C 27.8461 26.9928 29.7566 26.3043 29.7985 26.1291 C 31.1353 27.028 32 28.4597 32 30.0725 C 32 32.7939 29.5376 35 26.5 35 C 23.4624 35 21 32.7939 21 30.0725 Z" fill="#000000"/>
		<path d="M 27.4649 21.1642 C 27.4649 20.7907 27.7673 20.4879 28.1403 20.4879 C 28.5134 20.4879 28.8158 20.7907 28.8158 21.1642 C 28.8158 21.5378 28.5134 21.8406 28.1403 21.8406 C 27.7673 21.8406 27.4649 21.5378 27.4649 21.1642 ZM 24.6281 21.1642 C 24.6281 20.7907 24.9305 20.4879 25.3035 20.4879 C 25.6766 20.4879 25.979 20.7907 25.979 21.1642 C 25.979 21.5378 25.6766 21.8406 25.3035 21.8406 C 24.9305 21.8406 24.6281 21.5378 24.6281 21.1642 ZM 24.2228 22.9227 L 29.4912 22.9227 C 26.4518 25.9662 24.2228 22.9227 24.2228 22.9227 ZM 22.7368 22.2464 C 22.7368 24.4876 24.5512 26.3043 26.7895 26.3043 C 29.0277 26.3043 30.8421 24.4876 30.8421 22.2464 C 30.8421 20.0052 29.0277 18.1884 26.7895 18.1884 C 24.5512 18.1884 22.7368 20.0052 22.7368 22.2464 Z" fill="#000000"/>
		<path d="M 0 35 L 14 35 L 7 28 L 7 32 L 0 32 L 0 35 Z" fill="#000000"/>
	</g>
</svg>