<?xml version="1.0" standalone="no"?>
<!-- Generator: Adobe Fireworks 10, Export SVG Extension by Aaron Beall (http://fireworks.abeall.com) . Version: 0.6.1  -->
<!DOCTYPE svg PUBLIC "-//W3C//DTD SVG 1.1//EN" "http://www.w3.org/Graphics/SVG/1.1/DTD/svg11.dtd">
<svg id="weather_icon.fw-8" viewBox="0 0 35 35" style="background-color:#ffffff00" version="1.1"
	xmlns="http://www.w3.org/2000/svg" xmlns:xlink="http://www.w3.org/1999/xlink" xml:space="preserve"
	x="0px" y="0px" width="35px" height="35px"
>
	<g id="%u30EC%u30A4%u30E4%u30FC%2018">
		<path d="M 27.3438 10.4 C 26.9806 10.4 26.6217 10.4258 26.2642 10.4774 C 24.222 7.6787 20.9991 6 17.5 6 C 14.0009 6 10.7794 7.6787 8.7358 10.4774 C 8.3783 10.4258 8.0194 10.4 7.6563 10.4 C 3.4351 10.4 0 13.8547 0 18.1 C 0 22.3453 3.4351 25.8 7.6563 25.8 C 8.5919 25.8 9.5077 25.6281 10.3707 25.2958 C 12.3503 27.0318 14.8682 28 17.5 28 C 20.1347 28 22.6497 27.0318 24.6293 25.2958 C 25.4923 25.6281 26.4081 25.8 27.3438 25.8 C 31.5649 25.8 35 22.3453 35 18.1 C 35 13.8547 31.5649 10.4 27.3438 10.4 Z" fill="#000000"/>
	</g>
</svg>