<?xml version="1.0" standalone="no"?>
<!-- Generator: Adobe Fireworks 10, Export SVG Extension by Aaron Beall (http://fireworks.abeall.com) . Version: 0.6.1  -->
<!DOCTYPE svg PUBLIC "-//W3C//DTD SVG 1.1//EN" "http://www.w3.org/Graphics/SVG/1.1/DTD/svg11.dtd">
<svg id="weather_icon.fw-11" viewBox="0 0 35 35" style="background-color:#ffffff00" version="1.1"
	xmlns="http://www.w3.org/2000/svg" xmlns:xlink="http://www.w3.org/1999/xlink" xml:space="preserve"
	x="0px" y="0px" width="35px" height="35px"
>
	<g id="%u30EC%u30A4%u30E4%u30FC%20111">
		<path d="M 29.9737 15.5797 L 29.9737 19.058 L 28.5625 18.0072 C 27.9112 17.6449 26.3191 17.8623 25.9211 17.8986 C 26.5 17.3188 27.0789 16.1594 27.6579 15 C 28.2368 15 29.3947 15.5797 29.9737 15.5797 Z" fill="#000000"/>
		<path id="%u6955%u5186%u5F6211" d="M 21 30.0725 C 21 28.2176 22.1439 26.6021 23.8342 25.7614 C 23.9309 25.942 25.6413 26.9928 26.6086 26.9928 C 27.8461 26.9928 29.7566 26.3043 29.7985 26.1291 C 31.1353 27.028 32 28.4597 32 30.0725 C 32 32.7939 29.5376 35 26.5 35 C 23.4624 35 21 32.7939 21 30.0725 Z" fill="#000000"/>
		<path d="M 27.4649 21.1642 C 27.4649 20.7907 27.7673 20.4879 28.1403 20.4879 C 28.5134 20.4879 28.8158 20.7907 28.8158 21.1642 C 28.8158 21.5378 28.5134 21.8406 28.1403 21.8406 C 27.7673 21.8406 27.4649 21.5378 27.4649 21.1642 ZM 24.6281 21.1642 C 24.6281 20.7907 24.9305 20.4879 25.3035 20.4879 C 25.6766 20.4879 25.979 20.7907 25.979 21.1642 C 25.979 21.5378 25.6766 21.8406 25.3035 21.8406 C 24.9305 21.8406 24.6281 21.5378 24.6281 21.1642 ZM 24.2228 22.9227 L 29.4912 22.9227 C 26.4518 25.9662 24.2228 22.9227 24.2228 22.9227 ZM 22.7368 22.2464 C 22.7368 24.4876 24.5512 26.3043 26.7895 26.3043 C 29.0277 26.3043 30.8421 24.4876 30.8421 22.2464 C 30.8421 20.0052 29.0277 18.1884 26.7895 18.1884 C 24.5512 18.1884 22.7368 20.0052 22.7368 22.2464 Z" fill="#000000"/>
		<path d="M 15.625 3.6 C 15.4175 3.6 15.2124 3.6152 15.0081 3.6457 C 13.8411 1.9919 11.9995 1 10 1 C 8.0005 1 6.1597 1.9919 4.9919 3.6457 C 4.7876 3.6152 4.5825 3.6 4.375 3.6 C 1.9629 3.6 0 5.6414 0 8.15 C 0 10.6586 1.9629 12.7 4.375 12.7 C 4.9097 12.7 5.4329 12.5984 5.9261 12.4021 C 7.0573 13.4279 8.4961 14 10 14 C 11.5055 14 12.9427 13.4279 14.0739 12.4021 C 14.5671 12.5984 15.0903 12.7 15.625 12.7 C 18.0371 12.7 20 10.6586 20 8.15 C 20 5.6414 18.0371 3.6 15.625 3.6 Z" fill="#000000"/>
		<path d="M 2 25 L 32 8 L 33 9 L 2 26 L 2 25 Z" fill="#000000"/>
	</g>
</svg>