<?xml version="1.0" standalone="no"?>
<!-- Generator: Adobe Fireworks 10, Export SVG Extension by Aaron Beall (http://fireworks.abeall.com) . Version: 0.6.1  -->
<!DOCTYPE svg PUBLIC "-//W3C//DTD SVG 1.1//EN" "http://www.w3.org/Graphics/SVG/1.1/DTD/svg11.dtd">
<svg id="weather_icon.fw-12" viewBox="0 0 35 35" style="background-color:#ffffff00" version="1.1"
	xmlns="http://www.w3.org/2000/svg" xmlns:xlink="http://www.w3.org/1999/xlink" xml:space="preserve"
	x="0px" y="0px" width="35px" height="35px"
>
	<g id="%u30EC%u30A4%u30E4%u30FC%20112">
		<g>
			<path d="M 17.9393 25.2067 C 17.9393 21.267 21.1004 18.0734 25 18.0734 C 28.8996 18.0734 32.0607 21.267 32.0607 25.2067 C 32.0607 29.1464 28.8996 32.3401 25 32.3401 C 21.1004 32.3401 17.9393 29.1464 17.9393 25.2067 ZM 25 15 C 25 15 23.387 17.0264 22.6832 17.2352 C 21.9794 17.444 19.538 16.6203 19.538 16.6203 C 19.538 16.6203 19.2655 19.206 18.7851 19.7661 C 18.3047 20.3262 15.8101 20.9667 15.8101 20.9667 C 15.8101 20.9667 16.9646 23.2908 16.8602 24.0244 C 16.7558 24.7579 15 26.6593 15 26.6593 C 15 26.6593 17.2149 27.9839 17.5196 28.658 C 17.8244 29.3321 17.3648 31.8907 17.3648 31.8907 C 17.3648 31.8907 19.937 31.7953 20.554 32.1959 C 21.1711 32.5966 22.1537 35 22.1537 35 C 22.1537 35 24.2665 33.5148 25 33.5148 C 25.7335 33.5148 27.8463 35 27.8463 35 C 27.8463 35 28.8289 32.5966 29.446 32.1959 C 30.063 31.7953 32.6352 31.8907 32.6352 31.8907 C 32.6352 31.8907 32.1756 29.3321 32.4804 28.658 C 32.7851 27.9839 35 26.6593 35 26.6593 C 35 26.6593 33.2442 24.7579 33.1398 24.0244 C 33.0354 23.2908 34.1899 20.9667 34.1899 20.9667 C 34.1899 20.9667 31.6953 20.3262 31.2149 19.7661 C 30.7346 19.206 30.462 16.6203 30.462 16.6203 C 30.462 16.6203 28.0206 17.444 27.3168 17.2352 C 26.613 17.0264 25 15 25 15 Z" fill="#000000"/>
			<path id="%u6955%u5186%u5F6212" d="M 19.069 25.2067 C 19.069 21.8974 21.7243 19.2147 25 19.2147 C 28.2757 19.2147 30.931 21.8974 30.931 25.2067 C 30.931 28.5161 28.2757 31.1987 25 31.1987 C 21.7243 31.1987 19.069 28.5161 19.069 25.2067 Z" fill="#000000"/>
		</g>
		<path d="M 15.625 3.6 C 15.4175 3.6 15.2124 3.6152 15.0081 3.6457 C 13.8411 1.9919 11.9995 1 10 1 C 8.0005 1 6.1597 1.9919 4.9919 3.6457 C 4.7876 3.6152 4.5825 3.6 4.375 3.6 C 1.9629 3.6 0 5.6414 0 8.15 C 0 10.6586 1.9629 12.7 4.375 12.7 C 4.9097 12.7 5.4329 12.5984 5.9261 12.4021 C 7.0573 13.4279 8.4961 14 10 14 C 11.5055 14 12.9427 13.4279 14.0739 12.4021 C 14.5671 12.5984 15.0903 12.7 15.625 12.7 C 18.0371 12.7 20 10.6586 20 8.15 C 20 5.6414 18.0371 3.6 15.625 3.6 Z" fill="#000000"/>
		<path d="M 0 35 L 14 35 L 7 28 L 7 32 L 0 32 L 0 35 Z" fill="#000000"/>
	</g>
</svg>