<?xml version="1.0" standalone="no"?>
<!-- Generator: Adobe Fireworks 10, Export SVG Extension by Aaron Beall (http://fireworks.abeall.com) . Version: 0.6.1  -->
<!DOCTYPE svg PUBLIC "-//W3C//DTD SVG 1.1//EN" "http://www.w3.org/Graphics/SVG/1.1/DTD/svg11.dtd">
<svg id="weather_icon.fw-13" viewBox="0 0 35 35" style="background-color:#ffffff00" version="1.1"
	xmlns="http://www.w3.org/2000/svg" xmlns:xlink="http://www.w3.org/1999/xlink" xml:space="preserve"
	x="0px" y="0px" width="35px" height="35px"
>
	<g id="%u30EC%u30A4%u30E4%u30FC%20113">
		<path d="M 25.4194 16.2547 L 25.4194 17.0612 C 30.4862 17.0641 34.5081 21.2528 35 25.9332 C 33.3046 23.7574 30.2632 23.3247 28.3775 25.5512 C 27.7811 24.7806 26.4179 24.1079 25.4194 24.1079 L 25.4194 32.8101 C 25.4194 35.6364 20.0331 35.9226 20.0331 32.5129 C 20.0331 32.3041 20.2438 32.115 20.4305 32.046 L 20.7837 32.2158 C 21.0114 33.2473 21.4041 34.2534 22.7263 34.2534 C 23.4433 34.2534 24.5806 33.4573 24.5806 32.7252 L 24.5806 24.1928 C 23.9462 23.847 21.9166 25.3759 21.6667 25.9757 C 19.8435 23.8708 16.6917 23.81 15 26.103 C 15.383 20.944 19.3093 17.4464 24.5806 17.0612 L 24.5806 16.2547 L 24.9779 16 L 25.4194 16.2547 Z" fill="#000000"/>
		<path d="M 15.625 3.6 C 15.4175 3.6 15.2124 3.6152 15.0081 3.6457 C 13.8411 1.9919 11.9995 1 10 1 C 8.0005 1 6.1597 1.9919 4.9919 3.6457 C 4.7876 3.6152 4.5825 3.6 4.375 3.6 C 1.9629 3.6 0 5.6414 0 8.15 C 0 10.6586 1.9629 12.7 4.375 12.7 C 4.9097 12.7 5.4329 12.5984 5.9261 12.4021 C 7.0573 13.4279 8.4961 14 10 14 C 11.5055 14 12.9427 13.4279 14.0739 12.4021 C 14.5671 12.5984 15.0903 12.7 15.625 12.7 C 18.0371 12.7 20 10.6586 20 8.15 C 20 5.6414 18.0371 3.6 15.625 3.6 Z" fill="#000000"/>
		<path d="M 0 35 L 14 35 L 7 28 L 7 32 L 0 32 L 0 35 Z" fill="#000000"/>
	</g>
</svg>