<?xml version="1.0" standalone="no"?>
<!-- Generator: Adobe Fireworks 10, Export SVG Extension by Aaron Beall (http://fireworks.abeall.com) . Version: 0.6.1  -->
<!DOCTYPE svg PUBLIC "-//W3C//DTD SVG 1.1//EN" "http://www.w3.org/Graphics/SVG/1.1/DTD/svg11.dtd">
<svg id="weather_icon.fw-15" viewBox="0 0 35 35" style="background-color:#ffffff00" version="1.1"
	xmlns="http://www.w3.org/2000/svg" xmlns:xlink="http://www.w3.org/1999/xlink" xml:space="preserve"
	x="0px" y="0px" width="35px" height="35px"
>
	<g id="%u30EC%u30A4%u30E4%u30FC%20115">
		<path d="M 18.234 0.4558 L 18.234 1.8991 C 27.1009 1.9042 34.1392 9.3997 35 17.7752 C 32.0331 13.8817 26.7105 13.1074 23.4106 17.0916 C 22.3669 15.7127 19.9813 14.5089 18.234 14.5089 L 18.234 30.0812 C 18.234 35.1389 8.808 35.6509 8.808 29.5494 C 8.808 29.1758 9.1767 28.8373 9.5033 28.7138 L 10.1214 29.0177 C 10.52 30.8636 11.2071 32.6639 13.521 32.6639 C 14.7758 32.6639 16.766 31.2393 16.766 29.9292 L 16.766 14.6608 C 15.6558 14.0419 12.1041 16.778 11.6667 17.8512 C 8.4761 14.0846 2.9605 13.9757 0 18.0791 C 0.6703 8.8472 7.5413 2.5883 16.766 1.8991 L 16.766 0.4558 L 17.4614 0 L 18.234 0.4558 Z" fill="#000000"/>
	</g>
</svg>