<?xml version="1.0" standalone="no"?>
<!-- Generator: Adobe Fireworks 10, Export SVG Extension by Aaron Beall (http://fireworks.abeall.com) . Version: 0.6.1  -->
<!DOCTYPE svg PUBLIC "-//W3C//DTD SVG 1.1//EN" "http://www.w3.org/Graphics/SVG/1.1/DTD/svg11.dtd">
<svg id="weather_icon.fw-17" viewBox="0 0 35 35" style="background-color:#ffffff00" version="1.1"
	xmlns="http://www.w3.org/2000/svg" xmlns:xlink="http://www.w3.org/1999/xlink" xml:space="preserve"
	x="0px" y="0px" width="35px" height="35px"
>
	<g id="%u30EC%u30A4%u30E4%u30FC%20117">
		<path d="M 30.625 24.6 C 30.4175 24.6 30.2124 24.6152 30.0081 24.6457 C 28.8411 22.9919 26.9995 22 25 22 C 23.0005 22 21.1597 22.9919 19.9919 24.6457 C 19.7876 24.6152 19.5825 24.6 19.375 24.6 C 16.9629 24.6 15 26.6414 15 29.15 C 15 31.6586 16.9629 33.7 19.375 33.7 C 19.9097 33.7 20.4329 33.5984 20.9261 33.4021 C 22.0573 34.4279 23.4961 35 25 35 C 26.5055 35 27.9427 34.4279 29.0739 33.4021 C 29.5671 33.5984 30.0903 33.7 30.625 33.7 C 33.0371 33.7 35 31.6586 35 29.15 C 35 26.6414 33.0371 24.6 30.625 24.6 Z" fill="#000000"/>
		<path d="M 3 27 L 33 10 L 34 11 L 3 28 L 3 27 Z" fill="#000000"/>
		<path d="M 10.4194 0.2547 L 10.4194 1.0612 C 15.4862 1.0641 19.5081 5.2528 20 9.9332 C 18.3046 7.7574 15.2632 7.3247 13.3775 9.5512 C 12.7811 8.7806 11.4179 8.1079 10.4194 8.1079 L 10.4194 16.8101 C 10.4194 19.6364 5.0331 19.9226 5.0331 16.5129 C 5.0331 16.3041 5.2438 16.115 5.4305 16.046 L 5.7837 16.2158 C 6.0114 17.2473 6.4041 18.2534 7.7263 18.2534 C 8.4433 18.2534 9.5806 17.4573 9.5806 16.7252 L 9.5806 8.1928 C 8.9462 7.847 6.9166 9.3759 6.6667 9.9757 C 4.8435 7.8708 1.6917 7.81 0 10.103 C 0.383 4.944 4.3093 1.4464 9.5806 1.0612 L 9.5806 0.2547 L 9.9779 0 L 10.4194 0.2547 Z" fill="#000000"/>
	</g>
</svg>