<?xml version="1.0" standalone="no"?>
<!-- Generator: Adobe Fireworks 10, Export SVG Extension by Aaron Beall (http://fireworks.abeall.com) . Version: 0.6.1  -->
<!DOCTYPE svg PUBLIC "-//W3C//DTD SVG 1.1//EN" "http://www.w3.org/Graphics/SVG/1.1/DTD/svg11.dtd">
<svg id="weather_icon.fw-22" viewBox="0 0 35 35" style="background-color:#ffffff00" version="1.1"
	xmlns="http://www.w3.org/2000/svg" xmlns:xlink="http://www.w3.org/1999/xlink" xml:space="preserve"
	x="0px" y="0px" width="35px" height="35px"
>
	<g id="%u30EC%u30A4%u30E4%u30FC%20122">
		<path d="M 10.346 6.2974 L 11.3648 7.3162 C 17.7019 0.9864 28.0202 1.25 34.5472 6.5472 C 29.6797 5.9181 25.3312 9.1733 25.7865 14.3428 C 24.0676 14.1149 21.5139 14.9692 20.2658 16.2173 L 31.258 27.2095 C 34.8282 30.7797 28.4567 37.8739 24.1498 33.567 C 23.8861 33.3033 23.9106 32.801 24.0567 32.4805 L 24.7127 32.2535 C 26.3004 33.2718 28.0619 34.0518 29.7147 32.399 C 30.611 31.5028 31.027 29.0756 30.1023 28.1508 L 19.3245 17.3731 C 18.0947 17.7292 17.489 22.1975 17.9342 23.2675 C 12.9964 22.8877 8.9799 26.7505 9.7617 31.7617 C 3.7239 24.7663 4.2137 15.4404 10.3162 8.3648 L 9.2974 7.346 L 9.4724 6.5276 L 10.346 6.2974 Z" fill="#000000"/>
		<path d="M 1.0235 3.9765 C 2.0695 4.5435 4.7371 5.8642 5.5417 6.5553 C 7.5592 8.2883 5.4524 10.4524 3.8057 8.8057 C 2.8842 7.8842 1.6406 5.2437 0.9697 4.0303 L 1.0235 3.9765 Z" fill="#000000"/>
		<path d="M 10.0299 1 C 10.6112 1.3141 12.0936 2.0456 12.5407 2.4285 C 13.6618 3.3884 12.4911 4.5871 11.576 3.675 C 11.0639 3.1646 10.3729 1.702 10 1.0298 L 10.0299 1 Z" fill="#000000"/>
		<path d="M 5.0299 2 C 5.6112 2.3141 7.0936 3.0456 7.5407 3.4285 C 8.6618 4.3884 7.4911 5.5871 6.576 4.675 C 6.0639 4.1646 5.3729 2.702 5 2.0298 L 5.0299 2 Z" fill="#000000"/>
		<path d="M 1.0299 11 C 1.6112 11.3141 3.0936 12.0456 3.5407 12.4285 C 4.6618 13.3884 3.4911 14.5871 2.576 13.675 C 2.0639 13.1646 1.3729 11.702 1 11.0298 L 1.0299 11 Z" fill="#000000"/>
	</g>
</svg>