<?xml version="1.0" standalone="no"?>
<!-- Generator: Adobe Fireworks 10, Export SVG Extension by Aaron Beall (http://fireworks.abeall.com) . Version: 0.6.1  -->
<!DOCTYPE svg PUBLIC "-//W3C//DTD SVG 1.1//EN" "http://www.w3.org/Graphics/SVG/1.1/DTD/svg11.dtd">
<svg id="weather_icon.fw-23" viewBox="0 0 35 35" style="background-color:#ffffff00" version="1.1"
	xmlns="http://www.w3.org/2000/svg" xmlns:xlink="http://www.w3.org/1999/xlink" xml:space="preserve"
	x="0px" y="0px" width="35px" height="35px"
>
	<g id="%u30EC%u30A4%u30E4%u30FC%20123">
		<path d="M 21.5 1.5 L 21.5 7.5 L 19.0625 5.6875 C 17.9375 5.0625 15.1875 5.4375 14.5 5.5 C 15.5 4.5 16.5 2.5 17.5 0.5 C 18.5 0.5 20.5 1.5 21.5 1.5 Z" fill="#000000"/>
		<path id="%u6955%u5186%u5F6218" d="M 6 26.5 C 6 23.3003 7.9759 20.5136 10.8954 19.0634 C 11.0625 19.375 14.0168 21.1875 15.6875 21.1875 C 17.825 21.1875 21.125 20 21.1975 19.6976 C 23.5064 21.2483 25 23.718 25 26.5 C 25 31.1945 20.7468 35 15.5 35 C 10.2532 35 6 31.1945 6 26.5 Z" fill="#000000"/>
		<path d="M 17.1667 11.1333 C 17.1667 10.489 17.689 9.9667 18.3333 9.9667 C 18.9777 9.9667 19.5 10.489 19.5 11.1333 C 19.5 11.7777 18.9777 12.3 18.3333 12.3 C 17.689 12.3 17.1667 11.7777 17.1667 11.1333 ZM 12.2667 11.1333 C 12.2667 10.489 12.789 9.9667 13.4333 9.9667 C 14.0777 9.9667 14.6 10.489 14.6 11.1333 C 14.6 11.7777 14.0777 12.3 13.4333 12.3 C 12.789 12.3 12.2667 11.7777 12.2667 11.1333 ZM 11.5667 14.1667 L 20.6667 14.1667 C 15.4167 19.4167 11.5667 14.1667 11.5667 14.1667 ZM 9 13 C 9 16.8661 12.134 20 16 20 C 19.866 20 23 16.8661 23 13 C 23 9.1339 19.866 6 16 6 C 12.134 6 9 9.1339 9 13 Z" fill="#000000"/>
	</g>
</svg>