<?xml version="1.0" standalone="no"?>
<!-- Generator: Adobe Fireworks 10, Export SVG Extension by Aaron Beall (http://fireworks.abeall.com) . Version: 0.6.1  -->
<!DOCTYPE svg PUBLIC "-//W3C//DTD SVG 1.1//EN" "http://www.w3.org/Graphics/SVG/1.1/DTD/svg11.dtd">
<svg id="weather_icon.fw-24" viewBox="0 0 35 35" style="background-color:#ffffff00" version="1.1"
	xmlns="http://www.w3.org/2000/svg" xmlns:xlink="http://www.w3.org/1999/xlink" xml:space="preserve"
	x="0px" y="0px" width="35px" height="35px"
>
	<g id="%u30EC%u30A4%u30E4%u30FC%20124">
		<g>
			<path d="M 17.9393 25.2067 C 17.9393 21.267 21.1004 18.0734 25 18.0734 C 28.8996 18.0734 32.0607 21.267 32.0607 25.2067 C 32.0607 29.1464 28.8996 32.3401 25 32.3401 C 21.1004 32.3401 17.9393 29.1464 17.9393 25.2067 ZM 25 15 C 25 15 23.387 17.0264 22.6832 17.2352 C 21.9794 17.444 19.538 16.6203 19.538 16.6203 C 19.538 16.6203 19.2655 19.206 18.7851 19.7661 C 18.3047 20.3262 15.8101 20.9667 15.8101 20.9667 C 15.8101 20.9667 16.9646 23.2908 16.8602 24.0244 C 16.7558 24.7579 15 26.6593 15 26.6593 C 15 26.6593 17.2149 27.9839 17.5196 28.658 C 17.8244 29.3321 17.3648 31.8907 17.3648 31.8907 C 17.3648 31.8907 19.937 31.7953 20.554 32.1959 C 21.1711 32.5966 22.1537 35 22.1537 35 C 22.1537 35 24.2665 33.5148 25 33.5148 C 25.7335 33.5148 27.8463 35 27.8463 35 C 27.8463 35 28.8289 32.5966 29.446 32.1959 C 30.063 31.7953 32.6352 31.8907 32.6352 31.8907 C 32.6352 31.8907 32.1756 29.3321 32.4804 28.658 C 32.7851 27.9839 35 26.6593 35 26.6593 C 35 26.6593 33.2442 24.7579 33.1398 24.0244 C 33.0354 23.2908 34.1899 20.9667 34.1899 20.9667 C 34.1899 20.9667 31.6953 20.3262 31.2149 19.7661 C 30.7346 19.206 30.462 16.6203 30.462 16.6203 C 30.462 16.6203 28.0206 17.444 27.3168 17.2352 C 26.613 17.0264 25 15 25 15 Z" fill="#000000"/>
			<path id="%u6955%u5186%u5F6219" d="M 19.069 25.2067 C 19.069 21.8974 21.7243 19.2147 25 19.2147 C 28.2757 19.2147 30.931 21.8974 30.931 25.2067 C 30.931 28.5161 28.2757 31.1987 25 31.1987 C 21.7243 31.1987 19.069 28.5161 19.069 25.2067 Z" fill="#000000"/>
		</g>
		<path d="M 2 24 L 32 7 L 33 8 L 2 25 L 2 24 Z" fill="#000000"/>
		<path d="M 8.9737 0.5797 L 8.9737 4.058 L 7.5625 3.0072 C 6.9112 2.6449 5.3191 2.8623 4.9211 2.8986 C 5.5 2.3188 6.0789 1.1594 6.6579 0 C 7.2368 0 8.3947 0.5797 8.9737 0.5797 Z" fill="#000000"/>
		<path id="%u6955%u5186%u5F6220" d="M 0 15.0725 C 0 13.2176 1.1439 11.6021 2.8342 10.7614 C 2.9309 10.942 4.6413 11.9928 5.6086 11.9928 C 6.8461 11.9928 8.7566 11.3043 8.7985 11.1291 C 10.1353 12.028 11 13.4597 11 15.0725 C 11 17.7939 8.5376 20 5.5 20 C 2.4624 20 0 17.7939 0 15.0725 Z" fill="#000000"/>
		<path d="M 6.4649 6.1642 C 6.4649 5.7907 6.7673 5.4879 7.1403 5.4879 C 7.5134 5.4879 7.8158 5.7907 7.8158 6.1642 C 7.8158 6.5378 7.5134 6.8406 7.1403 6.8406 C 6.7673 6.8406 6.4649 6.5378 6.4649 6.1642 ZM 3.6281 6.1642 C 3.6281 5.7907 3.9305 5.4879 4.3035 5.4879 C 4.6766 5.4879 4.979 5.7907 4.979 6.1642 C 4.979 6.5378 4.6766 6.8406 4.3035 6.8406 C 3.9305 6.8406 3.6281 6.5378 3.6281 6.1642 ZM 3.2228 7.9227 L 8.4912 7.9227 C 5.4518 10.9662 3.2228 7.9227 3.2228 7.9227 ZM 1.7368 7.2464 C 1.7368 9.4876 3.5512 11.3043 5.7895 11.3043 C 8.0277 11.3043 9.8421 9.4876 9.8421 7.2464 C 9.8421 5.0052 8.0277 3.1884 5.7895 3.1884 C 3.5512 3.1884 1.7368 5.0052 1.7368 7.2464 Z" fill="#000000"/>
	</g>
</svg>