<?xml version="1.0" standalone="no"?>
<!-- Generator: Adobe Fireworks 10, Export SVG Extension by Aaron Beall (http://fireworks.abeall.com) . Version: 0.6.1  -->
<!DOCTYPE svg PUBLIC "-//W3C//DTD SVG 1.1//EN" "http://www.w3.org/Graphics/SVG/1.1/DTD/svg11.dtd">
<svg id="weather_icon.fw-26" viewBox="0 0 35 35" style="background-color:#ffffff00" version="1.1"
	xmlns="http://www.w3.org/2000/svg" xmlns:xlink="http://www.w3.org/1999/xlink" xml:space="preserve"
	x="0px" y="0px" width="35px" height="35px"
>
	<g id="%u30EC%u30A4%u30E4%u30FC%20126">
		<path d="M 25.4194 16.2547 L 25.4194 17.0612 C 30.4862 17.0641 34.5081 21.2528 35 25.9332 C 33.3046 23.7574 30.2632 23.3247 28.3775 25.5512 C 27.7811 24.7806 26.4179 24.1079 25.4194 24.1079 L 25.4194 32.8101 C 25.4194 35.6364 20.0331 35.9226 20.0331 32.5129 C 20.0331 32.3041 20.2438 32.115 20.4305 32.046 L 20.7837 32.2158 C 21.0114 33.2473 21.4041 34.2534 22.7263 34.2534 C 23.4433 34.2534 24.5806 33.4573 24.5806 32.7252 L 24.5806 24.1928 C 23.9462 23.847 21.9166 25.3759 21.6667 25.9757 C 19.8435 23.8708 16.6917 23.81 15 26.103 C 15.383 20.944 19.3093 17.4464 24.5806 17.0612 L 24.5806 16.2547 L 24.9779 16 L 25.4194 16.2547 Z" fill="#000000"/>
		<path d="M 2 25 L 32 8 L 33 9 L 2 26 L 2 25 Z" fill="#000000"/>
		<path d="M 8.9737 0.5797 L 8.9737 4.058 L 7.5625 3.0072 C 6.9112 2.6449 5.3191 2.8623 4.9211 2.8986 C 5.5 2.3188 6.0789 1.1594 6.6579 0 C 7.2368 0 8.3947 0.5797 8.9737 0.5797 Z" fill="#000000"/>
		<path id="%u6955%u5186%u5F6222" d="M 0 15.0725 C 0 13.2176 1.1439 11.6021 2.8342 10.7614 C 2.9309 10.942 4.6413 11.9928 5.6086 11.9928 C 6.8461 11.9928 8.7566 11.3043 8.7985 11.1291 C 10.1353 12.028 11 13.4597 11 15.0725 C 11 17.7939 8.5376 20 5.5 20 C 2.4624 20 0 17.7939 0 15.0725 Z" fill="#000000"/>
		<path d="M 6.4649 6.1642 C 6.4649 5.7907 6.7673 5.4879 7.1403 5.4879 C 7.5134 5.4879 7.8158 5.7907 7.8158 6.1642 C 7.8158 6.5378 7.5134 6.8406 7.1403 6.8406 C 6.7673 6.8406 6.4649 6.5378 6.4649 6.1642 ZM 3.6281 6.1642 C 3.6281 5.7907 3.9305 5.4879 4.3035 5.4879 C 4.6766 5.4879 4.979 5.7907 4.979 6.1642 C 4.979 6.5378 4.6766 6.8406 4.3035 6.8406 C 3.9305 6.8406 3.6281 6.5378 3.6281 6.1642 ZM 3.2228 7.9227 L 8.4912 7.9227 C 5.4518 10.9662 3.2228 7.9227 3.2228 7.9227 ZM 1.7368 7.2464 C 1.7368 9.4876 3.5512 11.3043 5.7895 11.3043 C 8.0277 11.3043 9.8421 9.4876 9.8421 7.2464 C 9.8421 5.0052 8.0277 3.1884 5.7895 3.1884 C 3.5512 3.1884 1.7368 5.0052 1.7368 7.2464 Z" fill="#000000"/>
	</g>
</svg>