<?xml version="1.0" standalone="no"?>
<!-- Generator: Adobe Fireworks 10, Export SVG Extension by Aaron Beall (http://fireworks.abeall.com) . Version: 0.6.1  -->
<!DOCTYPE svg PUBLIC "-//W3C//DTD SVG 1.1//EN" "http://www.w3.org/Graphics/SVG/1.1/DTD/svg11.dtd">
<svg id="weather_icon.fw-28" viewBox="0 0 35 35" style="background-color:#ffffff00" version="1.1"
	xmlns="http://www.w3.org/2000/svg" xmlns:xlink="http://www.w3.org/1999/xlink" xml:space="preserve"
	x="0px" y="0px" width="35px" height="35px"
>
	<g id="%u30EC%u30A4%u30E4%u30FC%20128">
		<path d="M 30.625 24.6 C 30.4175 24.6 30.2124 24.6152 30.0081 24.6457 C 28.8411 22.9919 26.9995 22 25 22 C 23.0005 22 21.1597 22.9919 19.9919 24.6457 C 19.7876 24.6152 19.5825 24.6 19.375 24.6 C 16.9629 24.6 15 26.6414 15 29.15 C 15 31.6586 16.9629 33.7 19.375 33.7 C 19.9097 33.7 20.4329 33.5984 20.9261 33.4021 C 22.0573 34.4279 23.4961 35 25 35 C 26.5055 35 27.9427 34.4279 29.0739 33.4021 C 29.5671 33.5984 30.0903 33.7 30.625 33.7 C 33.0371 33.7 35 31.6586 35 29.15 C 35 26.6414 33.0371 24.6 30.625 24.6 Z" fill="#000000"/>
		<path d="M 8.9737 0.5797 L 8.9737 4.058 L 7.5625 3.0072 C 6.9112 2.6449 5.3191 2.8623 4.9211 2.8986 C 5.5 2.3188 6.0789 1.1594 6.6579 0 C 7.2368 0 8.3947 0.5797 8.9737 0.5797 Z" fill="#000000"/>
		<path id="%u6955%u5186%u5F6225" d="M 0 15.0725 C 0 13.2176 1.1439 11.6021 2.8342 10.7614 C 2.9309 10.942 4.6413 11.9928 5.6086 11.9928 C 6.8461 11.9928 8.7566 11.3043 8.7985 11.1291 C 10.1353 12.028 11 13.4597 11 15.0725 C 11 17.7939 8.5376 20 5.5 20 C 2.4624 20 0 17.7939 0 15.0725 Z" fill="#000000"/>
		<path d="M 6.4649 6.1642 C 6.4649 5.7907 6.7673 5.4879 7.1403 5.4879 C 7.5134 5.4879 7.8158 5.7907 7.8158 6.1642 C 7.8158 6.5378 7.5134 6.8406 7.1403 6.8406 C 6.7673 6.8406 6.4649 6.5378 6.4649 6.1642 ZM 3.6281 6.1642 C 3.6281 5.7907 3.9305 5.4879 4.3035 5.4879 C 4.6766 5.4879 4.979 5.7907 4.979 6.1642 C 4.979 6.5378 4.6766 6.8406 4.3035 6.8406 C 3.9305 6.8406 3.6281 6.5378 3.6281 6.1642 ZM 3.2228 7.9227 L 8.4912 7.9227 C 5.4518 10.9662 3.2228 7.9227 3.2228 7.9227 ZM 1.7368 7.2464 C 1.7368 9.4876 3.5512 11.3043 5.7895 11.3043 C 8.0277 11.3043 9.8421 9.4876 9.8421 7.2464 C 9.8421 5.0052 8.0277 3.1884 5.7895 3.1884 C 3.5512 3.1884 1.7368 5.0052 1.7368 7.2464 Z" fill="#000000"/>
		<path d="M 0 35 L 14 35 L 7 28 L 7 32 L 0 32 L 0 35 Z" fill="#000000"/>
	</g>
</svg>